<?xml version="1.0" encoding="utf-8"?>
<!-- Generator: Adobe Illustrator 21.0.0, SVG Export Plug-In . SVG Version: 6.00 Build 0)  -->
<svg version="1.1" id="Calque_1" xmlns="http://www.w3.org/2000/svg" xmlns:xlink="http://www.w3.org/1999/xlink" x="0px" y="0px"
	 viewBox="0 0 1417.3 850.4" style="enable-background:new 0 0 1417.3 850.4;" xml:space="preserve">
<style type="text/css">
	.st0{fill:#AEC4B2;}
	.st1{fill:#6A9DA3;}
</style>
<g>
	<path class="st0" d="M340.4,174.5h19.4c40.8,0,75.6,14,104.3,42.1c28.7,28.1,43,61.2,43,99.2c0,38.1-14.8,70.9-44.5,98.4
		c-29.7,27.5-62.3,41.2-98.1,41.2h-4.7v160.8h-19.4V174.5z M359.9,439h4.7c33,0,61.7-12.2,86.3-36.5c24.5-24.3,36.8-53.2,36.8-86.6
		c0-33.4-12.5-62.4-37.4-87.2c-24.9-24.7-53.5-37.1-85.7-37.1h-4.7V439z"/>
	<path class="st0" d="M705.6,624.5h-5.9c-36.1,0-66.7-12.6-91.6-37.7c-24.9-25.1-37.4-56.7-37.4-94.8V174.5h19.4v316.9
		c0,33.4,10.8,61.1,32.4,83c21.6,22,48.3,33,80.1,33s58.4-10.9,79.8-32.7c21.4-21.8,32.1-49.6,32.1-83.3V174.5H834v316.3
		c0,38.5-12.5,70.4-37.4,95.7C771.7,611.9,741.3,624.5,705.6,624.5z"/>
	<path class="st0" d="M922.4,174.5h18.8c25.5,0,46.9,8,64.2,23.9c17.3,15.9,25.9,36.2,25.9,61c0,14.9-4.8,30.1-14.4,45.6
		c-9.6,15.5-20.9,25.6-33.9,30.3c30.2,7.5,55.4,23.6,75.4,48.3c20,24.7,30,55.9,30,93.4c0,37.5-14.3,70.1-43,97.8
		c-28.7,27.7-63.4,41.5-104.3,41.5h-18.8V174.5z M941.2,191v139h4.7c17.7,0,33.3-7.2,46.8-21.5c13.5-14.3,20.3-30.8,20.3-49.5
		c0-18.6-6.7-34.6-20-48c-13.4-13.3-29.1-20-47.1-20H941.2z M941.2,345.9v253.9h4.7c33.8,0,62.9-12.6,87.5-37.7
		c24.5-25.1,36.8-55,36.8-89.5c0-34.5-12.2-64.3-36.5-89.2c-24.4-24.9-53.6-37.4-87.8-37.4H941.2z"/>
</g>
<g>
	<path class="st1" d="M393.2,183.2h19.4c40.8,0,75.6,14,104.3,42.1c28.7,28.1,43,61.2,43,99.2c0,38.1-14.8,70.9-44.5,98.4
		c-29.7,27.5-62.3,41.2-98.1,41.2h-4.7v160.8h-19.4V183.2z M412.7,447.6h4.7c33,0,61.7-12.2,86.3-36.5
		c24.5-24.3,36.8-53.2,36.8-86.6c0-33.4-12.5-62.4-37.4-87.2c-24.9-24.7-53.5-37.1-85.7-37.1h-4.7V447.6z"/>
	<path class="st1" d="M758.4,633.1h-5.9c-36.1,0-66.7-12.6-91.6-37.7c-24.9-25.1-37.4-56.7-37.4-94.8V183.2H643V500
		c0,33.4,10.8,61.1,32.4,83c21.6,22,48.3,33,80.1,33s58.4-10.9,79.8-32.7c21.4-21.8,32.1-49.6,32.1-83.3V183.2h19.4v316.3
		c0,38.5-12.5,70.4-37.4,95.7C824.5,620.5,794.1,633.1,758.4,633.1z"/>
	<path class="st1" d="M975.2,183.2H994c25.5,0,46.9,8,64.2,23.9c17.3,15.9,25.9,36.2,25.9,61c0,14.9-4.8,30.1-14.4,45.6
		c-9.6,15.5-20.9,25.6-33.9,30.3c30.2,7.5,55.4,23.6,75.4,48.3c20,24.7,30,55.9,30,93.4c0,37.5-14.3,70.1-43,97.8
		c-28.7,27.7-63.4,41.5-104.3,41.5h-18.8V183.2z M994,199.6v139h4.7c17.7,0,33.3-7.2,46.8-21.5c13.5-14.3,20.3-30.8,20.3-49.5
		c0-18.6-6.7-34.6-20-48c-13.4-13.3-29.1-20-47.1-20H994z M994,354.6v253.9h4.7c33.8,0,62.9-12.6,87.5-37.7
		c24.5-25.1,36.8-55,36.8-89.5c0-34.5-12.2-64.3-36.5-89.2c-24.4-24.9-53.6-37.4-87.8-37.4H994z"/>
</g>
<rect x="-294.8" y="-185.4" style="fill:none;" width="2.4" height="2.4"/>
<polygon style="fill:none;" points="1479,485.5 1481.4,485.5 1481.4,485.5 1479,485.5 "/>
</svg>
